<?xml version="1.0" encoding="UTF-8"?>
<svg width="100px" height="20px" viewBox="0 0 100 20" version="1.1" xmlns="http://www.w3.org/2000/svg" xmlns:xlink="http://www.w3.org/1999/xlink">
    <title>icon/uih-logo</title>
    <g id="logo使用规范" stroke="none" stroke-width="1" fill="none" fill-rule="evenodd">
        <g id="logo样式规范" transform="translate(-92.000000, -102.000000)" fill="#00485e">
            <g id="编组" transform="translate(72.000000, 87.000000)">
                <g id="编组" transform="translate(20.000000, 15.000000)">
                    <g id="Page-1" transform="translate(-0.000136, 0.170725)">
                        <polygon id="Fill-1" points="92.8681727 6.0698946 99.8790245 6.0698946 99.8790245 0 92.8681727 0"></polygon>
                        <path d="M92.867992,18.17722 C94.8542495,17.9978393 96.6069624,17.2235968 97.8772276,16.0753755 C99.118582,14.9419104 99.8788438,13.4506061 99.8788438,11.8108169 L99.8788438,7.8441502 L92.867992,7.8441502 L92.867992,18.17722 Z" id="Fill-2"></path>
                        <path d="M84.1178889,0.000553359684 L84.1178889,11.8106324 C84.1178889,13.4504216 84.8772473,14.9421871 86.1199569,16.0756522 C87.3762184,17.2234124 89.142935,17.9981159 91.1436478,18.1770356 L91.1436478,0.000553359684 L84.1178889,0.000553359684 Z" id="Fill-5"></path>
                        <polygon id="Fill-7" points="26.3112027 8.21918972 28.8142394 8.21918972 28.8142394 1.29481555 31.5313961 1.29481555 31.5313961 0.000415019763 23.6279256 0.000415019763 23.6279256 1.29481555 26.3112027 1.29481555"></polygon>
                        <path d="M5.6145539,8.21918972 C8.61178337,8.21918972 8.61178337,6.3880303 8.61178337,5.59718709 L8.61178337,0.000415019763 L6.12591242,0.000415019763 L6.12591242,5.76596179 C6.12591242,6.35390646 6.00981777,6.90864954 5.3177672,6.90864954 L3.2763987,6.90864954 C2.60151387,6.90864954 2.48632269,6.35390646 2.48632269,5.76596179 L2.48632269,0.000415019763 L0,0.000415019763 L0,5.59718709 C0,6.3880303 0,8.21918972 2.99722947,8.21918972 L5.6145539,8.21918972 Z" id="Fill-10"></path>
                        <polygon id="Fill-13" points="20.0876714 8.21923584 22.5080414 8.21923584 22.5080414 0.00046113307 20.0876714 0.00046113307"></polygon>
                        <path d="M47.5796062,5.76582345 C47.5796062,6.35376812 47.4644151,6.9085112 46.7895302,6.9085112 L43.9413717,6.9085112 L43.9413717,1.29513834 L46.7895302,1.29513834 C47.4644151,1.29513834 47.5796062,1.86602108 47.5796062,2.45396574 L47.5796062,5.76582345 Z M47.0854135,0.000737812912 L41.4586629,0.000737812912 L41.4586629,8.21905138 L47.0854135,8.21905138 C50.0650255,8.21905138 50.0812878,6.38789196 50.0812878,5.59750988 L50.0812878,2.62227931 C50.0812878,1.83235837 50.0650255,0.000737812912 47.0854135,0.000737812912 L47.0854135,0.000737812912 Z" id="Fill-15"></path>
                        <polygon id="Fill-16" points="39.9442827 8.21918972 39.9442827 6.90864954 35.2851381 6.90864954 35.2851381 4.75700264 39.45009 4.75700264 39.45009 3.44646245 35.2851381 3.44646245 35.2851381 1.29481555 39.7301626 1.29481555 39.7301626 0.000415019763 32.7821014 0.000415019763 32.7821014 8.21918972"></polygon>
                        <polygon id="Fill-17" points="13.2547109 0.000553359684 16.4981333 5.32848485 16.4981333 0.000553359684 18.4243106 0.000553359684 18.4243106 8.21932806 15.4446986 8.21932806 12.1181579 2.74060606 12.1181579 8.21932806 10.1915288 8.21932806 10.1915288 0.000553359684"></polygon>
                        <path d="M44.4724257,11.5407773 C41.4797135,11.5407773 41.4797135,13.3733202 41.4797135,14.1637022 L41.4797135,17.1444664 C41.4797135,17.9334651 41.4797135,19.783531 44.4724257,19.783531 L49.9216463,19.783531 L49.9216463,14.8411067 L45.7896707,14.8411067 L45.7896707,16.1530303 L47.4357754,16.1530303 L47.4357754,18.4725296 L44.7683089,18.4725296 C44.0771618,18.4725296 43.9786846,17.9007246 43.9786846,17.3123188 L43.9786846,13.9944664 C43.9786846,13.4069829 44.0771618,12.8351779 44.7683089,12.8351779 L49.9216463,12.8351779 L49.9216463,11.5407773 L44.4724257,11.5407773 Z" id="Fill-18"></path>
                        <path d="M68.6717447,11.5407773 C65.6790326,11.5407773 65.6790326,13.3733202 65.6790326,14.1637022 L65.6790326,17.1444664 C65.6790326,17.9334651 65.6790326,19.783531 68.6717447,19.783531 L74.1209654,19.783531 L74.1209654,14.8411067 L69.9889898,14.8411067 L69.9889898,16.1530303 L71.6346427,16.1530303 L71.6346427,18.4725296 L68.9671762,18.4725296 C68.2764809,18.4725296 68.177552,17.9007246 68.177552,17.3123188 L68.177552,13.9944664 C68.177552,13.4069829 68.2764809,12.8351779 68.9671762,12.8351779 L74.1209654,12.8351779 L74.1209654,11.5407773 L68.6717447,11.5407773 Z" id="Fill-19"></path>
                        <polygon id="Fill-20" points="34.6966692 11.547556 31.6343906 19.7833926 33.5280434 19.7833926 35.7839837 13.6650791 38.1049731 19.7833926 41.1012991 19.7833926 38.0385688 11.547556"></polygon>
                        <polygon id="Fill-21" points="20.1087671 11.547556 23.1209037 11.547556 25.3447712 16.7911001 27.7651413 11.547556 30.728491 11.547556 30.728491 19.7833926 28.2914069 19.7833926 28.2914069 14.3046706 25.7725596 19.7833926 24.0772164 19.7833926 21.7715858 14.2876087 21.7715858 19.7833926 20.1087671 19.7833926"></polygon>
                        <polygon id="Fill-22" points="59.0120378 11.547556 62.2694638 16.8925494 62.2694638 11.547556 64.197448 11.547556 64.197448 19.7833926 61.2160291 19.7833926 57.8741296 14.2876087 57.8741296 19.7833926 55.9642145 19.7833926 55.9642145 11.547556"></polygon>
                        <polygon id="Fill-23" points="16.0252622 19.783531 18.4456323 19.783531 18.4456323 11.5476943 16.0252622 11.5476943"></polygon>
                        <polygon id="Fill-24" points="51.6834842 19.783531 54.087592 19.783531 54.087592 11.5476943 51.6834842 11.5476943"></polygon>
                        <polygon id="Fill-25" points="62.8923093 4.05096179 60.91599 4.05096179 60.91599 1.86611331 62.8417156 1.86611331 62.8417156 1.14305665 62.4469034 1.14305665 62.7604041 0.000368906456 61.3772064 0.000368906456 61.079968 1.14305665 59.5341475 1.14305665 59.2215502 0.000368906456 57.9368297 0.000368906456 58.2331647 1.14305665 57.7222579 1.14305665 57.7222579 1.86611331 59.6330764 1.86611331 59.6330764 4.05096179 57.6725676 4.05096179 57.6725676 4.79061924 59.1705047 4.79061924 57.623329 8.21914361 59.0069784 8.21914361 60.2234877 5.58054018 61.4589696 8.21914361 62.8417156 8.21914361 61.3279679 4.79061924 62.8923093 4.79061924"></polygon>
                        <path d="M54.6594824,2.35362319 L55.9776309,2.35362319 L55.9776309,0.723056653 L54.6594824,0.723056653 L54.6594824,2.35362319 Z M54.6594824,4.53893281 L55.9776309,4.53893281 L55.9776309,2.99229249 L54.6594824,2.99229249 L54.6594824,4.53893281 Z M55.9776309,6.7740448 L54.6594824,6.94189723 L54.6594824,5.17760211 L55.9776309,5.17760211 L55.9776309,6.7740448 Z M53.0793303,0.00046113307 L53.0793303,0.723056653 L53.4081899,0.723056653 L53.4081899,7.1102108 L53.1118549,7.14341238 L53.1118549,7.90013175 L55.9776309,7.5298419 L55.9776309,8.21923584 L57.2271165,8.21923584 L57.2271165,0.723056653 L57.5071892,0.723056653 L57.5071892,0.00046113307 L53.0793303,0.00046113307 Z" id="Fill-26"></path>
                        <polygon id="Fill-27" points="64.3575864 8.21918972 65.7240701 8.21918972 66.1685725 6.8076614 64.7849231 6.8076614"></polygon>
                        <polygon id="Fill-28" points="68.8861359 6.80789196 69.3469006 8.21942029 70.6799562 8.21942029 70.2688818 6.80789196"></polygon>
                        <polygon id="Fill-29" points="71.1734714 1.14434783 71.1734714 2.55633729 74.1205588 1.41226614 74.1205588 0.000737812912"></polygon>
                        <polygon id="Fill-30" points="71.1734714 5.408722 74.1205588 4.26557312 74.1205588 2.81992095 71.1734714 3.98013175"></polygon>
                        <path d="M65.9536393,2.28583663 L69.1143951,2.28583663 L69.1143951,1.73201581 L65.9536393,1.73201581 L65.9536393,2.28583663 Z M65.9378288,1.14361001 L69.1143951,1.14361001 L69.1143951,0.605928854 L65.9378288,0.605928854 L65.9378288,1.14361001 Z M68.1770551,2.85810277 L70.5802594,2.85810277 L70.5811629,0.00046113307 L64.4715127,0.00046113307 L64.4715127,2.85810277 L66.8589065,2.85810277 L66.8589065,3.42944664 L64.3576767,3.42944664 L64.3576767,4.11791831 L70.67964,4.11791831 L70.67964,3.42944664 L68.1770551,3.42944664 L68.1770551,2.85810277 Z" id="Fill-31"></path>
                        <polygon id="Fill-32" points="71.1734714 8.21918972 74.1205588 7.09310277 74.1205588 5.68157444 71.1734714 6.84132411"></polygon>
                        <path d="M64.4716031,4.55581028 L64.4716031,6.5054809 L66.860352,6.5054809 L66.860352,8.21905138 L68.1730798,8.21905138 L68.1730798,6.5054809 L70.579898,6.5054809 L70.579898,4.55581028 L64.4716031,4.55581028 Z M65.9537297,5.8502108 L69.1144854,5.8502108 L69.1144854,5.17787879 L65.9537297,5.17787879 L65.9537297,5.8502108 Z" id="Fill-33"></path>
                    </g>
                </g>
            </g>
        </g>
    </g>
</svg>